<svg xmlns="http://www.w3.org/2000/svg" version="1.1" xmlns:xlink="http://www.w3.org/1999/xlink" xmlns:svgjs="http://svgjs.dev/svgjs" width="1000" height="272" viewBox="0 0 1000 272"><g transform="matrix(1,0,0,1,-0.6060310633006907,0.4359726475030925)"><svg viewBox="0 0 396 108" data-background-color="#ffffff" preserveAspectRatio="xMidYMid meet" height="272" width="1000" xmlns="http://www.w3.org/2000/svg" xmlns:xlink="http://www.w3.org/1999/xlink"><defs></defs><g id="tight-bounds" transform="matrix(1,0,0,1,0.23998831020600164,-0.17310678650858335)"><svg viewBox="0 0 395.52 108.34621357301714" height="108.34621357301714" width="395.52"><g><svg viewBox="0 0 602.7093994593114 165.10234960629919" height="108.34621357301714" width="395.52"><g><rect width="6.880912153761259" height="165.10234960629919" x="182.2956282642903" y="0" fill="#10752a" opacity="1" stroke-width="0" stroke="transparent" fill-opacity="1" class="rect-o-0" data-fill-palette-color="primary" rx="1%" id="o-0" data-palette-color="#10752a"></rect></g><g transform="matrix(1,0,0,1,207.1893994593114,0.41070236220471656)"><svg viewBox="0 0 395.52 164.28094488188975" height="164.28094488188975" width="395.52"><g><svg viewBox="0 0 395.52 164.28094488188975" height="164.28094488188975" width="395.52"><g><svg viewBox="0 0 395.52 164.28094488188975" height="164.28094488188975" width="395.52"><g transform="matrix(1,0,0,1,0,0)"><svg width="395.52" viewBox="1.5 -38.19999694824219 203.19998168945312 81.39999389648438" height="164.28094488188975" data-palette-color="#10752a"><svg></svg><svg></svg><g class="undefined-text-0" data-fill-palette-color="primary" id="text-0"><path d="M30.5-6.9l-1.7 6.9h-26.8v-1.5h1.7c1 0 1.65-0.183 1.95-0.55 0.3-0.367 0.45-0.917 0.45-1.65v0-27.6c0-0.733-0.15-1.283-0.45-1.65-0.3-0.367-0.95-0.55-1.95-0.55v0h-1.7v-1.5h12.7v1.5h-1.9c-1 0-1.65 0.183-1.95 0.55-0.3 0.367-0.45 0.917-0.45 1.65v0 26.9c0 0.733 0.15 1.3 0.45 1.7 0.3 0.4 0.95 0.6 1.95 0.6v0h9.5c1.767 0 3.327-0.577 4.68-1.73 1.347-1.147 2.02-2.27 2.02-3.37v0zM48.3 1v0c-4.367 0-8.007-1.683-10.92-5.05-2.92-3.367-4.38-7.25-4.38-11.65v0c0-2.733 0.6-5.367 1.8-7.9 1.2-2.533 2.743-4.683 4.63-6.45 1.88-1.767 3.963-3.183 6.25-4.25 2.28-1.067 4.487-1.6 6.62-1.6v0c4.333 0 7.967 1.683 10.9 5.05 2.933 3.367 4.4 7.25 4.4 11.65v0c0 3.267-0.883 6.457-2.65 9.57-1.767 3.12-4.157 5.67-7.17 7.65-3.02 1.987-6.18 2.98-9.48 2.98zM51.4-2.8v0c3.633 0 6.693-1.333 9.18-4 2.48-2.667 3.72-5.967 3.72-9.9 0-3.933-1.44-7.467-4.32-10.6-2.887-3.133-6.38-4.7-10.48-4.7v0c-3.5 0-6.573 1.257-9.22 3.77-2.653 2.52-3.98 5.53-3.98 9.03v0c0 4.533 1.393 8.4 4.18 11.6 2.78 3.2 6.42 4.8 10.92 4.8zM71.4-35h7.7l9.5-0.5c2.933 0 5.333 0.617 7.2 1.85 1.867 1.233 2.8 2.917 2.8 5.05v0c0 2.967-0.8 5.383-2.4 7.25-1.6 1.867-3.567 3.283-5.9 4.25v0l8.1 12.2c0.333 0.533 0.977 1.25 1.93 2.15 0.947 0.9 1.803 1.35 2.57 1.35v0h0.9v1.4h-7.4c0.1 0-0.217-0.5-0.95-1.5-0.733-1-1.15-1.6-1.25-1.8v0l-8.3-12.8c-0.333 0.067-1 0.1-2 0.1-1 0-1.8-0.033-2.4-0.1v0l-0.4-2c0.467 0.067 1.467 0.1 3 0.1 1.533 0 3.067-0.2 4.6-0.6 1.533-0.4 2.883-1.16 4.05-2.28 1.167-1.113 1.75-2.553 1.75-4.32v0c0-4.933-3.167-7.4-9.5-7.4v0l-5.2 0.2v28.7c0 0.5 0.033 0.883 0.1 1.15 0.067 0.267 0.283 0.523 0.65 0.77 0.367 0.253 0.917 0.38 1.65 0.38v0h1.9v1.4h-12.7v-1.4h1.6c0.733 0 1.283-0.127 1.65-0.38 0.367-0.247 0.583-0.503 0.65-0.77 0.067-0.267 0.1-0.65 0.1-1.15v0-27.6c0-0.767-0.157-1.327-0.47-1.68-0.32-0.347-0.963-0.52-1.93-0.52v0h-1.6zM119.4-1.4v1.4h-12.7v-1.4h1.7c1 0 1.65-0.2 1.95-0.6 0.3-0.4 0.45-0.967 0.45-1.7v0-27.6c0-0.733-0.15-1.3-0.45-1.7-0.3-0.4-0.95-0.6-1.95-0.6v0h-1.7v-1.4h12.7v1.4h-1.9c-1 0-1.65 0.2-1.95 0.6-0.3 0.4-0.45 0.967-0.45 1.7v0 27.6c0 0.733 0.15 1.3 0.45 1.7 0.3 0.4 0.95 0.6 1.95 0.6v0zM122.9-2.4v0l0.7-6.5 1.7 0.1c0 1.833 1.093 3.307 3.28 4.42 2.18 1.12 4.663 1.68 7.45 1.68 2.78 0 4.87-0.427 6.27-1.28 1.4-0.847 2.1-1.92 2.1-3.22v0c0-2.2-1.167-4.167-3.5-5.9v0c-0.967-0.7-1.983-1.317-3.05-1.85v0c-2.433-1.267-3.957-2.077-4.57-2.43-0.62-0.347-1.313-0.703-2.08-1.07-0.767-0.367-1.473-0.76-2.12-1.18-0.653-0.413-1.347-0.92-2.08-1.52v0c-1.667-1.333-2.5-2.827-2.5-4.48 0-1.647 0.293-3.087 0.88-4.32 0.58-1.233 1.313-2.2 2.2-2.9 0.88-0.7 1.92-1.283 3.12-1.75v0c2.033-0.733 4.31-1.1 6.83-1.1 2.513 0 4.937 0.633 7.27 1.9v0l-0.6 5.8h-1.7c0-3.133-2.633-4.7-7.9-4.7v0c-2.433 0-4.257 0.383-5.47 1.15-1.22 0.767-1.83 1.817-1.83 3.15v0c0 2.133 3.467 4.7 10.4 7.7v0c4.567 1.967 7.483 4.15 8.75 6.55v0c0.633 1.2 0.95 2.517 0.95 3.95v0c0 3.467-1.39 6.15-4.17 8.05-2.787 1.9-6.147 2.85-10.08 2.85-3.933 0-7.35-1.033-10.25-3.1zM154.8-26.9v0l-1.4 0.6c-0.6-5.533-1.1-9-1.5-10.4v0l4.2-1.5c-0.233 2.767-0.667 6.533-1.3 11.3z" data-fill-palette-color="primary" fill="#10752a" opacity="1"></path><path d="M1.5 39.8v0l0.7-6.5 1.7 0.1c0 1.833 1.093 3.307 3.28 4.42 2.18 1.12 4.663 1.68 7.45 1.68 2.78 0 4.87-0.427 6.27-1.28 1.4-0.847 2.1-1.92 2.1-3.22v0c0-2.2-1.167-4.167-3.5-5.9v0c-0.967-0.7-1.983-1.317-3.05-1.85v0c-2.433-1.267-3.957-2.077-4.57-2.43-0.62-0.347-1.313-0.703-2.08-1.07-0.767-0.367-1.473-0.76-2.12-1.18-0.653-0.413-1.347-0.92-2.08-1.52v0c-1.667-1.333-2.5-2.827-2.5-4.48 0-1.647 0.293-3.087 0.88-4.32 0.58-1.233 1.313-2.2 2.2-2.9 0.88-0.7 1.92-1.283 3.12-1.75v0c2.033-0.733 4.31-1.1 6.83-1.1 2.513 0 4.937 0.633 7.27 1.9v0l-0.6 5.8h-1.7c0-3.133-2.633-4.7-7.9-4.7v0c-2.433 0-4.257 0.383-5.47 1.15-1.22 0.767-1.83 1.817-1.83 3.15v0c0 2.133 3.467 4.7 10.4 7.7v0c4.567 1.967 7.483 4.15 8.75 6.55v0c0.633 1.2 0.95 2.517 0.95 3.95v0c0 3.467-1.39 6.15-4.17 8.05-2.787 1.9-6.147 2.85-10.08 2.85-3.933 0-7.35-1.033-10.25-3.1zM49.2 40.8v1.4h-13v-1.4h2c1 0 1.633-0.193 1.9-0.58 0.267-0.38 0.4-0.92 0.4-1.62v0-27c0-0.5-0.033-0.893-0.1-1.18-0.067-0.28-0.277-0.537-0.63-0.77-0.347-0.233-0.87-0.35-1.57-0.35v0h-3c-1.767 0-3.123 0.54-4.07 1.62-0.953 1.087-1.463 2.247-1.53 3.48v0l-1.4-0.3 0.5-6.9h28.1l0.5 6.9-1.4 0.3c-0.067-1.2-0.583-2.35-1.55-3.45-0.967-1.1-2.317-1.65-4.05-1.65v0h-3c-0.733 0-1.283 0.127-1.65 0.38-0.367 0.247-0.583 0.503-0.65 0.77-0.067 0.267-0.1 0.65-0.1 1.15v0 27c0 0.467 0.033 0.833 0.1 1.1 0.067 0.267 0.283 0.517 0.65 0.75 0.367 0.233 0.917 0.35 1.65 0.35v0zM73.6 43.2v0c-4.367 0-8.01-1.683-10.93-5.05-2.913-3.367-4.37-7.25-4.37-11.65v0c0-2.733 0.6-5.367 1.8-7.9 1.2-2.533 2.74-4.683 4.62-6.45 1.887-1.767 3.97-3.183 6.25-4.25 2.287-1.067 4.497-1.6 6.63-1.6v0c4.333 0 7.967 1.683 10.9 5.05 2.933 3.367 4.4 7.25 4.4 11.65v0c0 3.267-0.883 6.457-2.65 9.57-1.767 3.12-4.157 5.67-7.17 7.65-3.02 1.987-6.18 2.98-9.48 2.98zM76.7 39.4v0c3.633 0 6.693-1.333 9.18-4 2.48-2.667 3.72-5.967 3.72-9.9 0-3.933-1.44-7.467-4.32-10.6-2.887-3.133-6.38-4.7-10.48-4.7v0c-3.5 0-6.573 1.257-9.22 3.77-2.653 2.52-3.98 5.53-3.98 9.03v0c0 4.533 1.393 8.4 4.18 11.6 2.78 3.2 6.42 4.8 10.92 4.8zM96.7 7.2h7.7l9.5-0.5c2.933 0 5.333 0.617 7.2 1.85 1.867 1.233 2.8 2.917 2.8 5.05v0c0 2.967-0.8 5.383-2.4 7.25-1.6 1.867-3.567 3.283-5.9 4.25v0l8.1 12.2c0.333 0.533 0.977 1.25 1.93 2.15 0.947 0.9 1.803 1.35 2.57 1.35v0h0.9v1.4h-7.4c0.1 0-0.217-0.5-0.95-1.5-0.733-1-1.15-1.6-1.25-1.8v0l-8.3-12.8c-0.333 0.067-1 0.1-2 0.1-1 0-1.8-0.033-2.4-0.1v0l-0.4-2c0.467 0.067 1.467 0.1 3 0.1 1.533 0 3.067-0.2 4.6-0.6 1.533-0.4 2.883-1.16 4.05-2.28 1.167-1.113 1.75-2.553 1.75-4.32v0c0-4.933-3.167-7.4-9.5-7.4v0l-5.2 0.2v28.7c0 0.5 0.033 0.883 0.1 1.15 0.067 0.267 0.283 0.523 0.65 0.77 0.367 0.253 0.917 0.38 1.65 0.38v0h1.9v1.4h-12.7v-1.4h1.6c0.733 0 1.283-0.127 1.65-0.38 0.367-0.247 0.583-0.503 0.65-0.77 0.067-0.267 0.1-0.65 0.1-1.15v0-27.6c0-0.767-0.157-1.327-0.47-1.68-0.32-0.347-0.963-0.52-1.93-0.52v0h-1.6zM144.7 40.8v1.4h-12.7v-1.4h1.7c1 0 1.65-0.2 1.95-0.6 0.3-0.4 0.45-0.967 0.45-1.7v0-27.6c0-0.733-0.15-1.3-0.45-1.7-0.3-0.4-0.95-0.6-1.95-0.6v0h-1.7v-1.4h12.7v1.4h-1.9c-1 0-1.65 0.2-1.95 0.6-0.3 0.4-0.45 0.967-0.45 1.7v0 27.6c0 0.733 0.15 1.3 0.45 1.7 0.3 0.4 0.95 0.6 1.95 0.6v0zM177.2 35.3l-1.7 6.9h-26.8v-1.4h1.7c0.967 0 1.607-0.183 1.92-0.55 0.32-0.367 0.48-0.95 0.48-1.75v0-27.6c0-0.667-0.21-1.217-0.63-1.65-0.413-0.433-1.003-0.65-1.77-0.65v0h-1.7v-1.4h26.4l0.4 6.9-1.4 0.3c0-1.2-0.483-2.35-1.45-3.45-0.967-1.1-2.317-1.65-4.05-1.65v0h-9.1c-1 0-1.65 0.19-1.95 0.57-0.3 0.387-0.45 0.93-0.45 1.63v0 11.4h10c0.5 0 0.883-0.027 1.15-0.08 0.267-0.047 0.507-0.22 0.72-0.52 0.22-0.3 0.33-0.733 0.33-1.3v0-2.3h1.5v10.4h-1.5v-2.1c0-0.833-0.183-1.373-0.55-1.62-0.367-0.253-0.917-0.38-1.65-0.38v0h-10v12.9c0 0.7 0.15 1.24 0.45 1.62 0.3 0.387 0.95 0.58 1.95 0.58v0h9.5c1.767 0 3.323-0.567 4.67-1.7 1.353-1.133 2.063-2.233 2.13-3.3v0zM180.2 39.8v0l0.7-6.5 1.7 0.1c0 1.833 1.093 3.307 3.28 4.42 2.18 1.12 4.66 1.68 7.44 1.68 2.787 0 4.88-0.427 6.28-1.28 1.4-0.847 2.1-1.92 2.1-3.22v0c0-2.2-1.167-4.167-3.5-5.9v0c-0.967-0.7-1.983-1.317-3.05-1.85v0c-2.433-1.267-3.96-2.077-4.58-2.43-0.613-0.347-1.303-0.703-2.07-1.07-0.767-0.367-1.473-0.76-2.12-1.18-0.653-0.413-1.347-0.92-2.08-1.52v0c-1.667-1.333-2.5-2.827-2.5-4.48 0-1.647 0.29-3.087 0.87-4.32 0.587-1.233 1.323-2.2 2.21-2.9 0.88-0.7 1.92-1.283 3.12-1.75v0c2.033-0.733 4.307-1.1 6.82-1.1 2.52 0 4.947 0.633 7.28 1.9v0l-0.6 5.8h-1.7c0-3.133-2.633-4.7-7.9-4.7v0c-2.433 0-4.26 0.383-5.48 1.15-1.213 0.767-1.82 1.817-1.82 3.15v0c0 2.133 3.467 4.7 10.4 7.7v0c4.567 1.967 7.483 4.15 8.75 6.55v0c0.633 1.2 0.95 2.517 0.95 3.95v0c0 3.467-1.393 6.15-4.18 8.05-2.78 1.9-6.137 2.85-10.07 2.85-3.933 0-7.35-1.033-10.25-3.1z" data-fill-palette-color="primary" fill="#10752a" opacity="1"></path></g></svg></g></svg></g></svg></g></svg></g><g transform="matrix(1,0,0,1,0,0.41070236220471656)"><svg viewBox="0 0 164.28276922303044 164.28094488188975" height="164.28094488188975" width="164.28276922303044"><g><svg xmlns="http://www.w3.org/2000/svg" viewBox="4.9670000076293945 5 90.0009994506836 90" xml:space="preserve" x="0" y="0" height="164.28094488188975" width="164.28276922303044" class="icon-icon-0" data-fill-palette-color="accent" id="icon-0"><path d="M81.588 69.219l-5.546 8.514L49.901 5 30.566 58.797l-6.08-15.251L4.967 95H94.968z" fill="#814b1a" data-fill-palette-color="accent"></path></svg></g></svg></g></svg></g></svg><rect width="395.52" height="108.34621357301714" fill="none" stroke="none" visibility="hidden"></rect></g></svg></g></svg>